<svg width="24" height="24" viewBox="0 0 24 24" fill="none" xmlns="http://www.w3.org/2000/svg">
<g clip-path="url(#clip0_7109_6)">
<path d="M12.557 0.960693C12.557 0.960693 11.9495 1.27072 11.3426 1.72729C11.0392 1.95557 10.7321 2.22041 10.4893 2.52543C10.2465 2.8304 10.0485 3.19255 10.0786 3.61602C10.1121 4.08665 10.4311 4.43713 10.7715 4.64727C11.1117 4.85737 11.4981 4.98449 11.862 5.10988C12.2259 5.23527 12.5675 5.35893 12.7841 5.49276C13.0008 5.62654 13.0678 5.71321 13.0786 5.86602C13.0799 5.88337 13.059 5.97599 12.9562 6.10522C12.8533 6.23446 12.6877 6.38319 12.5146 6.51351C12.1683 6.77399 11.807 6.96069 11.807 6.96069L12.1919 7.71144C12.1919 7.71144 12.6056 7.50079 13.0218 7.18766C13.23 7.0311 13.4426 6.8489 13.6162 6.63079C13.7899 6.41258 13.944 6.14141 13.9202 5.80612C13.8868 5.33549 13.5677 4.98501 13.2274 4.77487C12.8871 4.56472 12.5008 4.43765 12.1369 4.31226C11.7729 4.18687 11.4314 4.06321 11.2147 3.92938C10.998 3.79555 10.9311 3.70893 10.9202 3.55612C10.9127 3.45055 10.9773 3.26699 11.1493 3.05094C11.3213 2.83485 11.5814 2.60333 11.8499 2.40135C12.3868 1.99743 12.9419 1.71144 12.9419 1.71144L12.557 0.960693ZM6.55702 3.21069C6.55702 3.21069 5.94952 3.52072 5.34262 3.97729C5.0392 4.20557 4.73208 4.47041 4.48927 4.77543C4.24645 5.0804 4.04855 5.44255 4.07864 5.86602C4.11211 6.33665 4.43114 6.68713 4.77145 6.89727C5.11172 7.10737 5.49811 7.23449 5.862 7.35988C6.22594 7.48527 6.56747 7.60893 6.78413 7.74276C7.00083 7.87654 7.06781 7.96321 7.07864 8.11602C7.07991 8.13337 7.05905 8.22599 6.95616 8.35522C6.85327 8.48446 6.68775 8.63319 6.51459 8.76351C6.16828 9.02399 5.80701 9.21069 5.80701 9.21069L6.19186 9.96144C6.19186 9.96144 6.60558 9.75079 7.02183 9.43766C7.22995 9.2811 7.44258 9.0989 7.61625 8.88074C7.78992 8.66258 7.94405 8.39137 7.92023 8.05612C7.88677 7.58549 7.56773 7.23501 7.22742 7.02487C6.88711 6.81472 6.50077 6.68765 6.13687 6.56226C5.77294 6.43686 5.43141 6.31321 5.21475 6.17938C4.99805 6.04555 4.93106 5.95893 4.92023 5.80612C4.91273 5.70055 4.97728 5.51699 5.14927 5.30094C5.3213 5.08485 5.58136 4.85333 5.84986 4.65135C6.38677 4.24743 6.94186 3.96144 6.94186 3.96144L6.55702 3.21069ZM18.557 3.21069C18.557 3.21069 17.9495 3.52072 17.3426 3.97729C17.0392 4.20557 16.7321 4.47041 16.4893 4.77543C16.2465 5.0804 16.0485 5.44255 16.0786 5.86602C16.1121 6.33665 16.4311 6.68713 16.7715 6.89727C17.1117 7.10737 17.4981 7.23449 17.862 7.35988C18.2259 7.48527 18.5675 7.60893 18.7841 7.74276C19.0008 7.87654 19.0678 7.96321 19.0786 8.11602C19.0799 8.13337 19.059 8.22599 18.9562 8.35522C18.8533 8.48446 18.6877 8.63319 18.5146 8.76351C18.1683 9.02399 17.807 9.21069 17.807 9.21069L18.1919 9.96144C18.1919 9.96144 18.6056 9.75079 19.0218 9.43766C19.23 9.2811 19.4426 9.0989 19.6162 8.88074C19.7899 8.66258 19.944 8.39137 19.9202 8.05612C19.8868 7.58549 19.5677 7.23501 19.2274 7.02487C18.8871 6.81472 18.5008 6.68765 18.1369 6.56226C17.7729 6.43686 17.4314 6.31321 17.2147 6.17938C16.998 6.04555 16.9311 5.95893 16.9202 5.80612C16.9127 5.70055 16.9773 5.51699 17.1493 5.30094C17.3213 5.08485 17.5814 4.85333 17.8499 4.65135C18.3868 4.24743 18.9419 3.96144 18.9419 3.96144L18.557 3.21069ZM11.9994 8.7891C11.3901 8.7891 10.9779 9.06632 10.6629 9.53882C10.5325 9.73443 10.4273 9.96538 10.3482 10.2169C10.8788 10.1415 11.4296 10.1018 11.9994 10.1018C12.5693 10.1018 13.12 10.1415 13.6507 10.2169C13.5716 9.96538 13.4663 9.73443 13.3359 9.53882C13.0209 9.06632 12.6088 8.7891 11.9994 8.7891ZM11.9994 10.9454C6.4013 10.9454 2.91731 14.9784 2.69287 19.1018H21.306C21.0815 14.9784 17.5975 10.9453 11.9994 10.9453V10.9454ZM1.0477 19.3191L0.451172 19.9156C1.30055 20.765 2.24944 20.7891 2.99944 20.7891H20.9994C21.7494 20.7891 22.6983 20.765 23.5477 19.9156L22.9512 19.3191C22.3005 19.9696 21.7494 19.9455 20.9994 19.9455H2.99944C2.24944 19.9455 1.69828 19.9696 1.0477 19.3191ZM5.28759 21.6329L6.22519 23.0393H17.7737L18.7113 21.6329H5.28759Z" fill="black" stroke="black" stroke-width="0.75"/>
</g>
<defs>
<clipPath id="clip0_7109_6">
<rect width="24" height="24" fill="white"/>
</clipPath>
</defs>
</svg>
